<svg width="56" height="56" viewBox="0 0 56 56" fill="none" xmlns="http://www.w3.org/2000/svg">
<path d="M48.8163 14.9669L45.3163 7.96688C45.1708 7.67613 44.9472 7.43166 44.6705 7.26089C44.3939 7.09011 44.0751 6.99977 43.75 7H12.25C11.9249 6.99977 11.6061 7.09011 11.3295 7.26089C11.0528 7.43166 10.8292 7.67613 10.6838 7.96688L7.18375 14.9669C7.06312 15.2103 7.00025 15.4783 7 15.75V45.5C7 46.4283 7.36875 47.3185 8.02513 47.9749C8.6815 48.6313 9.57174 49 10.5 49H45.5C46.4283 49 47.3185 48.6313 47.9749 47.9749C48.6313 47.3185 49 46.4283 49 45.5V15.75C48.9998 15.4783 48.9369 15.2103 48.8163 14.9669ZM13.3306 10.5H42.6694L44.4194 14H11.5806L13.3306 10.5ZM45.5 45.5H10.5V17.5H45.5V45.5ZM36.2381 28.5119C36.4007 28.6745 36.5297 28.8675 36.6177 29.0799C36.7057 29.2924 36.751 29.5201 36.751 29.75C36.751 29.9799 36.7057 30.2076 36.6177 30.4201C36.5297 30.6325 36.4007 30.8255 36.2381 30.9881C36.0755 31.1507 35.8825 31.2797 35.6701 31.3677C35.4576 31.4557 35.2299 31.501 35 31.501C34.7701 31.501 34.5424 31.4557 34.3299 31.3677C34.1175 31.2797 33.9245 31.1507 33.7619 30.9881L29.75 26.9741V40.25C29.75 40.7141 29.5656 41.1592 29.2374 41.4874C28.9092 41.8156 28.4641 42 28 42C27.5359 42 27.0908 41.8156 26.7626 41.4874C26.4344 41.1592 26.25 40.7141 26.25 40.25V26.9741L22.2381 30.9881C22.0755 31.1507 21.8825 31.2797 21.6701 31.3677C21.4576 31.4557 21.2299 31.501 21 31.501C20.7701 31.501 20.5424 31.4557 20.3299 31.3677C20.1175 31.2797 19.9245 31.1507 19.7619 30.9881C19.5993 30.8255 19.4703 30.6325 19.3823 30.4201C19.2943 30.2076 19.249 29.9799 19.249 29.75C19.249 29.5201 19.2943 29.2924 19.3823 29.0799C19.4703 28.8675 19.5993 28.6745 19.7619 28.5119L26.7619 21.5119C26.9244 21.3492 27.1174 21.2201 27.3299 21.132C27.5423 21.044 27.77 20.9986 28 20.9986C28.23 20.9986 28.4577 21.044 28.6701 21.132C28.8826 21.2201 29.0756 21.3492 29.2381 21.5119L36.2381 28.5119Z" fill="#7F56D9"/>
</svg>
