<svg width="45" height="24" viewBox="0 0 45 24" fill="none" xmlns="http://www.w3.org/2000/svg">
<path d="M5.44706 18.192C4.5724 18.192 3.7884 17.9787 3.09506 17.552C2.4124 17.1147 1.8684 16.4907 1.46306 15.68C1.0684 14.8693 0.871063 13.8933 0.871063 12.752C0.871063 11.6213 1.07373 10.6507 1.47906 9.84C1.8844 9.02933 2.43906 8.40533 3.14306 7.968C3.84706 7.53067 4.64173 7.312 5.52706 7.312C6.16706 7.312 6.7324 7.44533 7.22306 7.712C7.71373 7.968 8.1084 8.26667 8.40706 8.608L7.68706 9.472C7.40973 9.17333 7.09506 8.93333 6.74306 8.752C6.39106 8.57067 5.99106 8.48 5.54306 8.48C4.88173 8.48 4.3004 8.656 3.79906 9.008C3.3084 9.34933 2.9244 9.83467 2.64706 10.464C2.3804 11.0933 2.24706 11.8453 2.24706 12.72C2.24706 13.5947 2.3804 14.3573 2.64706 15.008C2.91373 15.648 3.28706 16.144 3.76706 16.496C4.25773 16.848 4.83373 17.024 5.49506 17.024C5.9964 17.024 6.4444 16.9173 6.83906 16.704C7.23373 16.4907 7.5964 16.2027 7.92706 15.84L8.66306 16.672C8.24706 17.152 7.77773 17.5253 7.25506 17.792C6.7324 18.0587 6.12973 18.192 5.44706 18.192ZM12.2837 18.192C11.633 18.192 11.089 18 10.6517 17.616C10.225 17.2213 10.0117 16.6773 10.0117 15.984C10.0117 15.1307 10.3904 14.48 11.1477 14.032C11.9157 13.5733 13.1264 13.2533 14.7797 13.072C14.7797 12.7413 14.7317 12.4267 14.6357 12.128C14.5504 11.8293 14.3904 11.5893 14.1557 11.408C13.9317 11.216 13.6064 11.12 13.1797 11.12C12.7317 11.12 12.3104 11.2053 11.9157 11.376C11.521 11.5467 11.169 11.7387 10.8597 11.952L10.3477 11.04C10.7104 10.8053 11.153 10.5813 11.6757 10.368C12.209 10.144 12.785 10.032 13.4037 10.032C14.353 10.032 15.041 10.3253 15.4677 10.912C15.8944 11.488 16.1077 12.2613 16.1077 13.232V18H15.0197L14.9077 17.072H14.8597C14.497 17.3707 14.097 17.632 13.6597 17.856C13.233 18.08 12.7744 18.192 12.2837 18.192ZM12.6677 17.136C13.041 17.136 13.393 17.0453 13.7237 16.864C14.0544 16.6827 14.4064 16.4267 14.7797 16.096V13.936C13.489 14.096 12.5824 14.336 12.0597 14.656C11.5477 14.976 11.2917 15.3867 11.2917 15.888C11.2917 16.3253 11.425 16.6453 11.6917 16.848C11.9584 17.04 12.2837 17.136 12.6677 17.136ZM18.5542 18V10.224H19.6422L19.7542 11.344H19.8022C20.1755 10.9707 20.5702 10.6613 20.9862 10.416C21.4022 10.16 21.8769 10.032 22.4102 10.032C23.2315 10.032 23.8289 10.2933 24.2022 10.816C24.5862 11.328 24.7782 12.08 24.7782 13.072V18H23.4662V13.248C23.4662 12.5227 23.3489 11.9947 23.1142 11.664C22.8795 11.3333 22.5062 11.168 21.9942 11.168C21.5995 11.168 21.2422 11.2693 20.9222 11.472C20.6129 11.6747 20.2609 11.9733 19.8662 12.368V18H18.5542ZM30.3762 18.192C29.6935 18.192 29.0749 18.032 28.5202 17.712C27.9655 17.392 27.5282 16.928 27.2082 16.32C26.8882 15.712 26.7282 14.9813 26.7282 14.128C26.7282 13.2533 26.8989 12.512 27.2402 11.904C27.5922 11.296 28.0509 10.832 28.6162 10.512C29.1922 10.192 29.8109 10.032 30.4722 10.032C30.9842 10.032 31.4215 10.1227 31.7842 10.304C32.1575 10.4853 32.4775 10.6987 32.7442 10.944L32.0722 11.808C31.8482 11.6053 31.6082 11.44 31.3522 11.312C31.1069 11.184 30.8295 11.12 30.5202 11.12C30.0509 11.12 29.6295 11.248 29.2562 11.504C28.8935 11.7493 28.6055 12.1013 28.3922 12.56C28.1895 13.008 28.0882 13.5307 28.0882 14.128C28.0882 15.0133 28.3069 15.7333 28.7442 16.288C29.1922 16.832 29.7735 17.104 30.4882 17.104C30.8509 17.104 31.1869 17.0293 31.4962 16.88C31.8055 16.72 32.0775 16.5333 32.3122 16.32L32.8882 17.2C32.5362 17.5093 32.1469 17.7547 31.7202 17.936C31.2935 18.1067 30.8455 18.192 30.3762 18.192ZM37.4093 18.192C36.716 18.192 36.0866 18.032 35.5213 17.712C34.956 17.3813 34.508 16.912 34.1773 16.304C33.8466 15.696 33.6813 14.9707 33.6813 14.128C33.6813 13.2747 33.8466 12.544 34.1773 11.936C34.5186 11.328 34.956 10.8587 35.4893 10.528C36.0226 10.1973 36.5826 10.032 37.1693 10.032C38.1613 10.032 38.924 10.3627 39.4573 11.024C40.0013 11.6853 40.2733 12.5707 40.2733 13.68C40.2733 13.8187 40.268 13.9573 40.2573 14.096C40.2573 14.224 40.2466 14.336 40.2253 14.432H34.9773C35.0306 15.2533 35.2866 15.9093 35.7453 16.4C36.2146 16.8907 36.8226 17.136 37.5693 17.136C37.9426 17.136 38.284 17.0827 38.5933 16.976C38.9133 16.8587 39.2173 16.7093 39.5053 16.528L39.9693 17.392C39.6386 17.6053 39.26 17.792 38.8333 17.952C38.4173 18.112 37.9426 18.192 37.4093 18.192ZM34.9613 13.488H39.1213C39.1213 12.6987 38.9506 12.1013 38.6093 11.696C38.2786 11.28 37.8093 11.072 37.2013 11.072C36.6573 11.072 36.1666 11.2853 35.7293 11.712C35.3026 12.128 35.0466 12.72 34.9613 13.488ZM43.5868 18.192C43.0961 18.192 42.7388 18.0427 42.5148 17.744C42.3015 17.4347 42.1948 16.9973 42.1948 16.432V6.608H43.5068V16.528C43.5068 16.7307 43.5441 16.88 43.6188 16.976C43.6935 17.0613 43.7788 17.104 43.8748 17.104C43.9175 17.104 43.9548 17.104 43.9868 17.104C44.0295 17.0933 44.0881 17.0827 44.1628 17.072L44.3388 18.064C44.2535 18.1067 44.1521 18.1387 44.0348 18.16C43.9175 18.1813 43.7681 18.192 43.5868 18.192Z" fill="#206F9D"/>
</svg>
