<svg width="20" height="20" viewBox="0 0 20 20" fill="none" xmlns="http://www.w3.org/2000/svg">
<path d="M16.6914 10.7148L11.6914 15.7148C11.5039 15.9023 11.2539 15.9961 11.0039 15.9961C10.7227 15.9961 10.4727 15.9023 10.2852 15.7148C9.87891 15.3398 9.87891 14.6836 10.2852 14.3086L13.5664 10.9961H4.00391C3.44141 10.9961 3.00391 10.5586 3.00391 9.99609C3.00391 9.46484 3.44141 8.99609 4.00391 8.99609H13.5664L10.2852 5.71484C9.87891 5.33984 9.87891 4.68359 10.2852 4.30859C10.6602 3.90234 11.3164 3.90234 11.6914 4.30859L16.6914 9.30859C17.0977 9.68359 17.0977 10.3398 16.6914 10.7148Z" fill="#353A41"/>
</svg>
