<svg width="56" height="56" viewBox="0 0 56 56" fill="none" xmlns="http://www.w3.org/2000/svg">
<path d="M22.75 14.0023C22.7494 12.6932 22.3816 11.4106 21.6886 10.3C20.9955 9.18941 20.005 8.29542 18.8293 7.71955C17.6537 7.14368 16.3402 6.909 15.0379 7.04218C13.7356 7.17536 12.4967 7.67105 11.462 8.47296C10.4273 9.27487 9.63817 10.3509 9.18427 11.5787C8.73037 12.8066 8.62987 14.1372 8.8942 15.4193C9.15853 16.7014 9.77708 17.8837 10.6796 18.8319C11.5822 19.7802 12.7325 20.4563 14 20.7836V35.2211C12.3504 35.647 10.9127 36.66 9.95646 38.0701C9.00024 39.4802 8.59113 41.1907 8.80581 42.8808C9.02049 44.571 9.84422 46.1249 11.1226 47.2511C12.401 48.3774 14.0463 48.9988 15.75 48.9988C17.4538 48.9988 19.099 48.3774 20.3774 47.2511C21.6558 46.1249 22.4795 44.571 22.6942 42.8808C22.9089 41.1907 22.4998 39.4802 21.5436 38.0701C20.5874 36.66 19.1497 35.647 17.5 35.2211V20.7836C19.0021 20.3934 20.3323 19.5161 21.2823 18.289C22.2324 17.0618 22.7486 15.5542 22.75 14.0023ZM12.25 14.0023C12.25 13.3101 12.4553 12.6334 12.8399 12.0578C13.2245 11.4823 13.7711 11.0337 14.4106 10.7688C15.0502 10.5038 15.7539 10.4345 16.4328 10.5696C17.1118 10.7046 17.7354 11.038 18.2249 11.5275C18.7144 12.0169 19.0477 12.6406 19.1828 13.3195C19.3178 13.9985 19.2485 14.7022 18.9836 15.3417C18.7187 15.9813 18.2701 16.5279 17.6945 16.9125C17.1189 17.2971 16.4423 17.5023 15.75 17.5023C14.8218 17.5023 13.9315 17.1336 13.2751 16.4772C12.6188 15.8208 12.25 14.9306 12.25 14.0023ZM19.25 42.0023C19.25 42.6946 19.0447 43.3713 18.6602 43.9468C18.2756 44.5224 17.729 44.971 17.0894 45.2359C16.4499 45.5008 15.7461 45.5701 15.0672 45.4351C14.3883 45.3 13.7646 44.9667 13.2751 44.4772C12.7857 43.9877 12.4523 43.3641 12.3173 42.6852C12.1822 42.0062 12.2515 41.3025 12.5164 40.6629C12.7813 40.0234 13.2299 39.4768 13.8055 39.0922C14.3811 38.7076 15.0578 38.5023 15.75 38.5023C16.6783 38.5023 17.5685 38.8711 18.2249 39.5275C18.8813 40.1838 19.25 41.0741 19.25 42.0023ZM45.5 35.2211V24.2026C45.5035 23.5123 45.37 22.8281 45.1071 22.1898C44.8443 21.5514 44.4573 20.9716 43.9688 20.4839L35.7241 12.2523H42C42.4642 12.2523 42.9093 12.068 43.2375 11.7398C43.5656 11.4116 43.75 10.9665 43.75 10.5023C43.75 10.0382 43.5656 9.59309 43.2375 9.2649C42.9093 8.93671 42.4642 8.75233 42 8.75233H31.5C31.0359 8.75233 30.5908 8.93671 30.2626 9.2649C29.9344 9.59309 29.75 10.0382 29.75 10.5023V21.0023C29.75 21.4665 29.9344 21.9116 30.2626 22.2398C30.5908 22.568 31.0359 22.7523 31.5 22.7523C31.9641 22.7523 32.4093 22.568 32.7375 22.2398C33.0656 21.9116 33.25 21.4665 33.25 21.0023V14.7264L41.4881 22.9711C41.6506 23.1337 41.7794 23.3268 41.8673 23.5392C41.9551 23.7517 42.0002 23.9793 42 24.2092V35.2211C40.3504 35.647 38.9127 36.66 37.9565 38.0701C37.0002 39.4802 36.5911 41.1907 36.8058 42.8808C37.0205 44.571 37.8442 46.1249 39.1226 47.2511C40.401 48.3774 42.0463 48.9988 43.75 48.9988C45.4538 48.9988 47.099 48.3774 48.3774 47.2511C49.6558 46.1249 50.4795 44.571 50.6942 42.8808C50.9089 41.1907 50.4998 39.4802 49.5436 38.0701C48.5874 36.66 47.1497 35.647 45.5 35.2211ZM43.75 45.5023C43.0578 45.5023 42.3811 45.2971 41.8055 44.9125C41.23 44.5279 40.7813 43.9813 40.5164 43.3417C40.2515 42.7022 40.1822 41.9985 40.3173 41.3195C40.4523 40.6406 40.7857 40.0169 41.2751 39.5275C41.7646 39.038 42.3883 38.7046 43.0672 38.5696C43.7461 38.4345 44.4499 38.5038 45.0894 38.7688C45.729 39.0337 46.2756 39.4823 46.6602 40.0578C47.0448 40.6334 47.25 41.3101 47.25 42.0023C47.25 42.9306 46.8813 43.8208 46.2249 44.4772C45.5685 45.1336 44.6783 45.5023 43.75 45.5023Z" fill="#AA945F"/>
</svg>
