<svg width="18" height="19" viewBox="0 0 18 19" fill="none" xmlns="http://www.w3.org/2000/svg">
<path d="M10.7227 0.140625C11.0391 0.246094 11.25 0.5625 11.25 0.878906V2.28516H11.8125C14.2734 2.28516 16.3125 4.32422 16.3125 6.78516V12.6562C17.2969 13.0781 18 14.0977 18 15.2227C18 16.8047 16.7344 18.0352 15.1875 18.0352C13.6055 18.0352 12.375 16.8047 12.375 15.2227C12.375 14.0977 13.043 13.0781 14.0625 12.6562V6.78516C14.0625 5.55469 13.043 4.53516 11.8125 4.53516H11.25V5.94141C11.25 6.29297 11.0391 6.60938 10.7227 6.71484C10.4414 6.85547 10.0547 6.82031 9.80859 6.57422L6.99609 4.04297C6.82031 3.90234 6.75 3.65625 6.75 3.41016C6.75 3.19922 6.82031 2.95312 6.99609 2.8125L9.80859 0.28125C10.0547 0.0351562 10.4414 0 10.7227 0.140625ZM15.1875 16.0664C15.6445 16.0664 16.0312 15.7148 16.0312 15.2227C16.0312 14.7656 15.6445 14.3789 15.1875 14.3789C14.6953 14.3789 14.3438 14.7656 14.3438 15.2227C14.3438 15.7148 14.6953 16.0664 15.1875 16.0664ZM3.9375 12.6562C4.92188 13.0781 5.625 14.0977 5.625 15.2227C5.625 16.8047 4.35938 18.0352 2.8125 18.0352C1.23047 18.0352 0 16.8047 0 15.2227C0 14.0977 0.667969 13.0781 1.6875 12.6562V5.44922C0.667969 4.99219 0 4.00781 0 2.84766C0 1.30078 1.23047 0.0351562 2.8125 0.0351562C4.35938 0.0351562 5.625 1.30078 5.625 2.84766C5.625 4.00781 4.92188 4.99219 3.9375 5.44922V12.6562ZM2.8125 2.00391C2.32031 2.00391 1.96875 2.39062 1.96875 2.84766C1.96875 3.33984 2.32031 3.69141 2.8125 3.69141C3.26953 3.69141 3.65625 3.33984 3.65625 2.84766C3.65625 2.39062 3.26953 2.00391 2.8125 2.00391ZM2.8125 14.3789C2.32031 14.3789 1.96875 14.7656 1.96875 15.2227C1.96875 15.7148 2.32031 16.0664 2.8125 16.0664C3.26953 16.0664 3.65625 15.7148 3.65625 15.2227C3.65625 14.7656 3.26953 14.3789 2.8125 14.3789Z" fill="#353A41"/>
</svg>
