<svg width="52" height="42" viewBox="0 0 52 42" fill="none" xmlns="http://www.w3.org/2000/svg">
<path d="M23.1977 12.1406C23.2798 12.6328 23.3618 13.207 23.3618 13.7812C23.3618 14.4375 23.2798 15.0117 23.1977 15.5039L25.0024 17.1445C25.5767 17.6367 25.8227 18.457 25.4946 19.1953C25.3306 19.6055 25.0845 20.0977 24.9204 20.5078L24.6743 20.918C24.3462 21.3281 24.1001 21.7383 23.854 22.1484C23.3618 22.7227 22.5415 22.9688 21.8032 22.7227L19.5063 21.9023C18.604 22.6406 17.6196 23.2148 16.5532 23.625L15.979 26.0039C15.897 26.8242 15.2407 27.3984 14.5024 27.4805C13.9282 27.5625 13.354 27.5625 12.8618 27.5625C12.2876 27.5625 11.7134 27.5625 11.1392 27.4805C10.4009 27.3984 9.74462 26.8242 9.66259 26.0039L9.08837 23.625C8.02197 23.2148 7.03759 22.6406 6.13525 21.9023L3.83837 22.7227C3.10009 22.9688 2.27978 22.7227 1.78759 22.1484C1.5415 21.7383 1.21337 21.3281 0.96728 20.918L0.721186 20.5078C0.557124 20.0977 0.31103 19.6055 0.146967 19.1953C-0.181158 18.457 0.0649362 17.6367 0.639155 17.1445L2.44384 15.5039C2.36181 15.0117 2.27978 14.4375 2.27978 13.7812C2.27978 13.207 2.36181 12.6328 2.44384 12.1406L0.639155 10.5C0.0649362 9.92578 -0.181158 9.10547 0.146967 8.44922C0.31103 7.95703 0.557124 7.54688 0.721186 7.13672L0.96728 6.72656C1.21337 6.31641 1.5415 5.90625 1.78759 5.49609C2.27978 4.92188 3.10009 4.67578 3.83837 4.92188L6.13525 5.74219C7.03759 5.00391 8.02197 4.42969 9.08837 4.01953L9.66259 1.64062C9.74462 0.820312 10.4009 0.246094 11.1392 0.164062C11.7134 0.0820312 12.2876 0 12.8618 0C13.354 0 13.9282 0.0820312 14.5024 0.164062C15.2407 0.246094 15.897 0.820312 15.979 1.64062L16.5532 4.01953C17.6196 4.42969 18.604 5.00391 19.5063 5.74219L21.8032 4.92188C22.5415 4.67578 23.3618 4.92188 23.854 5.49609C24.1001 5.90625 24.3462 6.31641 24.6743 6.72656L24.9204 7.13672C25.0845 7.54688 25.3306 7.95703 25.4946 8.44922C25.8227 9.10547 25.5767 9.92578 25.0024 10.5L23.1977 12.1406ZM12.8618 9.84375C10.647 9.84375 8.92431 11.6484 8.92431 13.7812C8.92431 15.9961 10.647 17.7188 12.8618 17.7188C14.9946 17.7188 16.7993 15.9961 16.7993 13.7812C16.7993 11.6484 14.9946 9.84375 12.8618 9.84375ZM39.4399 38.6367C38.9478 38.7188 38.3735 38.7188 37.7993 38.7188C37.1431 38.7188 36.5688 38.7188 36.0767 38.6367L34.436 40.4414C33.8618 41.0156 33.1235 41.2617 32.3853 40.9336C31.9751 40.7695 31.4829 40.5234 31.0727 40.3594L30.6626 40.0312C30.2524 39.7852 29.8423 39.5391 29.4321 39.293C28.8579 38.8008 28.6118 37.9805 28.8579 37.2422L29.6782 34.9453C28.9399 34.043 28.3657 33.0586 27.9556 31.9102L25.5767 31.418C24.7563 31.2539 24.1821 30.6797 24.1001 29.9414C24.0181 29.3672 24.0181 28.793 24.0181 28.2188C24.0181 27.7266 24.0181 27.1523 24.1001 26.5781C24.1821 25.8398 24.7563 25.1836 25.5767 25.0195L27.9556 24.5273C28.3657 23.4609 28.9399 22.4766 29.6782 21.5742L28.8579 19.2773C28.6118 18.5391 28.8579 17.7188 29.4321 17.2266C29.8423 16.9805 30.2524 16.6523 30.6626 16.4062L31.0727 16.1602C31.4829 15.9961 31.8931 15.75 32.3853 15.5859C33.1235 15.2578 33.8618 15.5039 34.436 16.0781L36.0767 17.8828C36.5688 17.8008 37.1431 17.7188 37.7993 17.7188C38.3735 17.7188 38.9478 17.8008 39.4399 17.8828L41.0806 16.0781C41.6548 15.5039 42.3931 15.2578 43.1313 15.5859C43.6235 15.75 44.0337 15.9961 44.4438 16.1602L44.854 16.4062C45.2642 16.6523 45.6743 16.9805 46.0845 17.2266C46.6587 17.7188 46.9048 18.5391 46.6587 19.2773L45.8384 21.5742C46.5767 22.4766 47.1509 23.4609 47.561 24.5273L49.9399 25.0195C50.7603 25.1836 51.3345 25.8398 51.4165 26.5781C51.4985 27.1523 51.5806 27.7266 51.5806 28.2188C51.5806 28.793 51.4985 29.3672 51.4165 29.9414C51.3345 30.6797 50.7603 31.2539 49.9399 31.418L47.561 31.9102C47.1509 33.0586 46.5767 34.043 45.8384 34.9453L46.6587 37.2422C46.9048 37.9805 46.6587 38.8008 46.0845 39.293C45.6743 39.5391 45.2642 39.7852 44.854 40.0312L44.4438 40.3594C44.0337 40.5234 43.5415 40.7695 43.1313 40.9336C42.3931 41.2617 41.6548 41.0156 41.0806 40.4414L39.4399 38.6367ZM41.7368 28.2188C41.7368 26.0859 39.9321 24.2812 37.7993 24.2812C35.5845 24.2812 33.8618 26.0859 33.8618 28.2188C33.8618 30.4336 35.5845 32.1562 37.7993 32.1562C39.9321 32.1562 41.7368 30.4336 41.7368 28.2188Z" fill="#3C8DBC"/>
<path d="M23.1977 12.1406C23.2798 12.6328 23.3618 13.207 23.3618 13.7812C23.3618 14.4375 23.2798 15.0117 23.1977 15.5039L25.0024 17.1445C25.5767 17.6367 25.8227 18.457 25.4946 19.1953C25.3306 19.6055 25.0845 20.0977 24.9204 20.5078L24.6743 20.918C24.3462 21.3281 24.1001 21.7383 23.854 22.1484C23.3618 22.7227 22.5415 22.9688 21.8032 22.7227L19.5063 21.9023C18.604 22.6406 17.6196 23.2148 16.5532 23.625L15.979 26.0039C15.897 26.8242 15.2407 27.3984 14.5024 27.4805C13.9282 27.5625 13.354 27.5625 12.8618 27.5625C12.2876 27.5625 11.7134 27.5625 11.1392 27.4805C10.4009 27.3984 9.74462 26.8242 9.66259 26.0039L9.08837 23.625C8.02197 23.2148 7.03759 22.6406 6.13525 21.9023L3.83837 22.7227C3.10009 22.9688 2.27978 22.7227 1.78759 22.1484C1.5415 21.7383 1.21337 21.3281 0.96728 20.918L0.721186 20.5078C0.557124 20.0977 0.31103 19.6055 0.146967 19.1953C-0.181158 18.457 0.0649362 17.6367 0.639155 17.1445L2.44384 15.5039C2.36181 15.0117 2.27978 14.4375 2.27978 13.7812C2.27978 13.207 2.36181 12.6328 2.44384 12.1406L0.639155 10.5C0.0649362 9.92578 -0.181158 9.10547 0.146967 8.44922C0.31103 7.95703 0.557124 7.54688 0.721186 7.13672L0.96728 6.72656C1.21337 6.31641 1.5415 5.90625 1.78759 5.49609C2.27978 4.92188 3.10009 4.67578 3.83837 4.92188L6.13525 5.74219C7.03759 5.00391 8.02197 4.42969 9.08837 4.01953L9.66259 1.64062C9.74462 0.820312 10.4009 0.246094 11.1392 0.164062C11.7134 0.0820312 12.2876 0 12.8618 0C13.354 0 13.9282 0.0820312 14.5024 0.164062C15.2407 0.246094 15.897 0.820312 15.979 1.64062L16.5532 4.01953C17.6196 4.42969 18.604 5.00391 19.5063 5.74219L21.8032 4.92188C22.5415 4.67578 23.3618 4.92188 23.854 5.49609C24.1001 5.90625 24.3462 6.31641 24.6743 6.72656L24.9204 7.13672C25.0845 7.54688 25.3306 7.95703 25.4946 8.44922C25.8227 9.10547 25.5767 9.92578 25.0024 10.5L23.1977 12.1406ZM12.8618 9.84375C10.647 9.84375 8.92431 11.6484 8.92431 13.7812C8.92431 15.9961 10.647 17.7188 12.8618 17.7188C14.9946 17.7188 16.7993 15.9961 16.7993 13.7812C16.7993 11.6484 14.9946 9.84375 12.8618 9.84375ZM39.4399 38.6367C38.9478 38.7188 38.3735 38.7188 37.7993 38.7188C37.1431 38.7188 36.5688 38.7188 36.0767 38.6367L34.436 40.4414C33.8618 41.0156 33.1235 41.2617 32.3853 40.9336C31.9751 40.7695 31.4829 40.5234 31.0727 40.3594L30.6626 40.0312C30.2524 39.7852 29.8423 39.5391 29.4321 39.293C28.8579 38.8008 28.6118 37.9805 28.8579 37.2422L29.6782 34.9453C28.9399 34.043 28.3657 33.0586 27.9556 31.9102L25.5767 31.418C24.7563 31.2539 24.1821 30.6797 24.1001 29.9414C24.0181 29.3672 24.0181 28.793 24.0181 28.2188C24.0181 27.7266 24.0181 27.1523 24.1001 26.5781C24.1821 25.8398 24.7563 25.1836 25.5767 25.0195L27.9556 24.5273C28.3657 23.4609 28.9399 22.4766 29.6782 21.5742L28.8579 19.2773C28.6118 18.5391 28.8579 17.7188 29.4321 17.2266C29.8423 16.9805 30.2524 16.6523 30.6626 16.4062L31.0727 16.1602C31.4829 15.9961 31.8931 15.75 32.3853 15.5859C33.1235 15.2578 33.8618 15.5039 34.436 16.0781L36.0767 17.8828C36.5688 17.8008 37.1431 17.7188 37.7993 17.7188C38.3735 17.7188 38.9478 17.8008 39.4399 17.8828L41.0806 16.0781C41.6548 15.5039 42.3931 15.2578 43.1313 15.5859C43.6235 15.75 44.0337 15.9961 44.4438 16.1602L44.854 16.4062C45.2642 16.6523 45.6743 16.9805 46.0845 17.2266C46.6587 17.7188 46.9048 18.5391 46.6587 19.2773L45.8384 21.5742C46.5767 22.4766 47.1509 23.4609 47.561 24.5273L49.9399 25.0195C50.7603 25.1836 51.3345 25.8398 51.4165 26.5781C51.4985 27.1523 51.5806 27.7266 51.5806 28.2188C51.5806 28.793 51.4985 29.3672 51.4165 29.9414C51.3345 30.6797 50.7603 31.2539 49.9399 31.418L47.561 31.9102C47.1509 33.0586 46.5767 34.043 45.8384 34.9453L46.6587 37.2422C46.9048 37.9805 46.6587 38.8008 46.0845 39.293C45.6743 39.5391 45.2642 39.7852 44.854 40.0312L44.4438 40.3594C44.0337 40.5234 43.5415 40.7695 43.1313 40.9336C42.3931 41.2617 41.6548 41.0156 41.0806 40.4414L39.4399 38.6367ZM41.7368 28.2188C41.7368 26.0859 39.9321 24.2812 37.7993 24.2812C35.5845 24.2812 33.8618 26.0859 33.8618 28.2188C33.8618 30.4336 35.5845 32.1562 37.7993 32.1562C39.9321 32.1562 41.7368 30.4336 41.7368 28.2188Z" fill="#206F9D"/>
</svg>
