<svg width="24" height="24" viewBox="0 0 24 24" fill="none" xmlns="http://www.w3.org/2000/svg">
<path d="M18.6914 12.7148L13.6914 17.7148C13.5039 17.9023 13.2539 17.9961 13.0039 17.9961C12.7227 17.9961 12.4727 17.9023 12.2852 17.7148C11.8789 17.3398 11.8789 16.6836 12.2852 16.3086L15.5664 12.9961H6.00391C5.44141 12.9961 5.00391 12.5586 5.00391 11.9961C5.00391 11.4648 5.44141 10.9961 6.00391 10.9961H15.5664L12.2852 7.71484C11.8789 7.33984 11.8789 6.68359 12.2852 6.30859C12.6602 5.90234 13.3164 5.90234 13.6914 6.30859L18.6914 11.3086C19.0977 11.6836 19.0977 12.3398 18.6914 12.7148Z" fill="#367FAA"/>
<path d="M18.6914 12.7148L13.6914 17.7148C13.5039 17.9023 13.2539 17.9961 13.0039 17.9961C12.7227 17.9961 12.4727 17.9023 12.2852 17.7148C11.8789 17.3398 11.8789 16.6836 12.2852 16.3086L15.5664 12.9961H6.00391C5.44141 12.9961 5.00391 12.5586 5.00391 11.9961C5.00391 11.4648 5.44141 10.9961 6.00391 10.9961H15.5664L12.2852 7.71484C11.8789 7.33984 11.8789 6.68359 12.2852 6.30859C12.6602 5.90234 13.3164 5.90234 13.6914 6.30859L18.6914 11.3086C19.0977 11.6836 19.0977 12.3398 18.6914 12.7148Z" fill="black" fill-opacity="0.2"/>
</svg>
