<svg width="16" height="19" viewBox="0 0 16 19" fill="none" xmlns="http://www.w3.org/2000/svg">
<path d="M13.5 12.4805C13.5 11.8828 13.9922 11.3555 14.625 11.3555C15.2227 11.3555 15.75 11.8828 15.75 12.4805V14.7305C15.75 16.6289 14.2383 18.1055 12.375 18.1055H3.375C1.47656 18.1055 0 16.6289 0 14.7305V12.4805C0 11.8828 0.492188 11.3555 1.125 11.3555C1.72266 11.3555 2.25 11.8828 2.25 12.4805V14.7305C2.25 15.3633 2.74219 15.8555 3.375 15.8555H12.375C12.9727 15.8555 13.5 15.3633 13.5 14.7305V12.4805ZM7.06641 0.457031C7.48828 0 8.22656 0 8.64844 0.457031L13.1484 4.95703C13.6055 5.37891 13.6055 6.11719 13.1484 6.53906C12.7266 6.99609 11.9883 6.99609 11.5664 6.53906L9 3.97266V11.3555C9 11.9883 8.47266 12.4805 7.875 12.4805C7.24219 12.4805 6.75 11.9883 6.75 11.3555V3.97266L4.14844 6.53906C3.72656 6.99609 2.98828 6.99609 2.56641 6.53906C2.10938 6.11719 2.10938 5.37891 2.56641 4.95703L7.06641 0.457031Z" fill="#353A41"/>
</svg>
