<svg width="56" height="56" viewBox="0 0 56 56" fill="none" xmlns="http://www.w3.org/2000/svg">
<path d="M28 37.744C27.678 37.744 27.38 37.691 27.106 37.585C26.832 37.479 26.565 37.295 26.305 37.033L18.445 29.176C18.153 28.884 18.001 28.54 17.989 28.144C17.977 27.748 18.129 27.385 18.445 27.055C18.777 26.723 19.134 26.554 19.516 26.548C19.9 26.542 20.257 26.705 20.587 27.037L26.5 32.95V8.50002C26.5 8.07402 26.643 7.71702 26.929 7.42902C27.215 7.14102 27.572 6.99802 28 7.00002C28.428 7.00202 28.785 7.14502 29.071 7.42902C29.357 7.71302 29.5 8.07002 29.5 8.50002V32.95L35.413 27.037C35.705 26.745 36.052 26.592 36.454 26.578C36.856 26.564 37.222 26.723 37.552 27.055C37.872 27.385 38.035 27.739 38.041 28.117C38.047 28.495 37.885 28.848 37.555 29.176L29.695 37.036C29.435 37.296 29.168 37.479 28.894 37.585C28.622 37.691 28.324 37.744 28 37.744ZM11.848 49C10.466 49 9.313 48.538 8.389 47.614C7.465 46.69 7.002 45.536 7 44.152V38.383C7 37.957 7.143 37.601 7.429 37.315C7.715 37.029 8.072 36.885 8.5 36.883C8.928 36.881 9.285 37.025 9.571 37.315C9.857 37.605 10 37.961 10 38.383V44.152C10 44.614 10.192 45.038 10.576 45.424C10.96 45.81 11.383 46.002 11.845 46H44.155C44.615 46 45.038 45.808 45.424 45.424C45.81 45.04 46.002 44.616 46 44.152V38.383C46 37.957 46.143 37.601 46.429 37.315C46.715 37.029 47.072 36.885 47.5 36.883C47.928 36.881 48.285 37.025 48.571 37.315C48.857 37.605 49 37.961 49 38.383V44.152C49 45.534 48.538 46.687 47.614 47.611C46.69 48.535 45.536 48.998 44.152 49H11.848Z" fill="#4D8CB1"/>
</svg>
