<svg width="24" height="24" viewBox="0 0 24 24" fill="none" xmlns="http://www.w3.org/2000/svg">
<path d="M11.6719 20.5C11.0627 20.5 10.4785 20.2388 10.0477 19.7739C9.61699 19.3089 9.375 18.6783 9.375 18.0208V5.97917C9.375 4.61067 10.404 3.5 11.6719 3.5H20.2031C21.471 3.5 22.5 4.61067 22.5 5.97917V18.0208C22.5 18.6783 22.258 19.3089 21.8273 19.7739C21.3965 20.2388 20.8123 20.5 20.2031 20.5H11.6719ZM11.3438 18.0208C11.3438 18.2163 11.4908 18.375 11.6719 18.375H20.2031C20.2902 18.375 20.3736 18.3377 20.4351 18.2713C20.4967 18.2048 20.5313 18.1148 20.5313 18.0208V5.97917C20.5313 5.88524 20.4967 5.79515 20.4351 5.72873C20.3736 5.66231 20.2902 5.625 20.2031 5.625H11.6719C11.5849 5.625 11.5014 5.66231 11.4399 5.72873C11.3783 5.79515 11.3438 5.88524 11.3438 5.97917V18.0208ZM7.93125 5.63633C7.99601 5.75715 8.03808 5.89057 8.05506 6.02894C8.07203 6.16732 8.06358 6.30795 8.03018 6.4428C7.99679 6.57765 7.9391 6.70408 7.86042 6.81486C7.78174 6.92563 7.6836 7.01859 7.57163 7.08842C7.52141 7.11938 7.47966 7.16412 7.45062 7.21811C7.42158 7.27209 7.40627 7.33341 7.40625 7.39583V16.6042C7.40625 16.7317 7.46925 16.8492 7.57163 16.9116C7.79754 17.0529 7.96221 17.2852 8.02941 17.5575C8.0966 17.8298 8.06082 18.1198 7.92994 18.3637C7.79905 18.6075 7.58379 18.7852 7.33149 18.8578C7.0792 18.9303 6.81054 18.8917 6.58463 18.7504C6.23581 18.5327 5.94618 18.2198 5.74483 17.8431C5.54348 17.4663 5.43749 17.0391 5.4375 16.6042V7.39583C5.4375 6.47642 5.90081 5.676 6.58463 5.24817C6.69656 5.17827 6.82017 5.13286 6.94837 5.11453C7.07657 5.09621 7.20686 5.10533 7.3318 5.14138C7.45673 5.17743 7.57386 5.23969 7.67649 5.32462C7.77912 5.40955 7.86656 5.51547 7.93125 5.63633ZM3.63281 8.50508C3.58259 8.53605 3.54085 8.58079 3.5118 8.63477C3.48276 8.68876 3.46746 8.75007 3.46744 8.8125V15.1875C3.46744 15.315 3.53044 15.4326 3.63281 15.4949C3.74468 15.5649 3.84268 15.6579 3.92122 15.7687C3.99977 15.8796 4.05732 16.006 4.09059 16.1409C4.12387 16.2757 4.13221 16.4163 4.11514 16.5546C4.09807 16.6929 4.05593 16.8263 3.99113 16.947C3.92632 17.0677 3.84011 17.1735 3.73743 17.2583C3.63475 17.3431 3.5176 17.4052 3.39268 17.4411C3.26775 17.477 3.1375 17.486 3.00935 17.4676C2.88121 17.4492 2.75768 17.4037 2.64581 17.3338C2.29724 17.1159 2.00788 16.8029 1.80677 16.4262C1.60565 16.0494 1.49986 15.6223 1.5 15.1875V8.8125C1.49963 8.37748 1.60531 7.95002 1.80644 7.57304C2.00756 7.19606 2.29705 6.88284 2.64581 6.66483C2.75776 6.59488 2.88138 6.54942 3.0096 6.53103C3.13783 6.51265 3.26816 6.5217 3.39314 6.55768C3.51813 6.59366 3.63532 6.65586 3.73804 6.74072C3.84075 6.82559 3.92697 6.93146 3.99178 7.05229C4.05659 7.17312 4.09871 7.30655 4.11575 7.44495C4.13278 7.58336 4.12439 7.72403 4.09106 7.85893C4.05772 7.99384 4.0001 8.12033 3.92147 8.2312C3.84285 8.34207 3.74476 8.43513 3.63281 8.50508Z" fill="#0D2C3F"/>
</svg>
