<svg width="24" height="24" viewBox="0 0 24 24" fill="none" xmlns="http://www.w3.org/2000/svg">
<path d="M7 5C7 3.93913 7.42143 2.92172 8.17157 2.17157C8.92172 1.42143 9.93913 1 11 1C12.0609 1 13.0783 1.42143 13.8284 2.17157C14.5786 2.92172 15 3.93913 15 5H18C18.2652 5 18.5196 5.10536 18.7071 5.29289C18.8946 5.48043 19 5.73478 19 6V9C20.0609 9 21.0783 9.42143 21.8284 10.1716C22.5786 10.9217 23 11.9391 23 13C23 14.0609 22.5786 15.0783 21.8284 15.8284C21.0783 16.5786 20.0609 17 19 17V20C19 20.2652 18.8946 20.5196 18.7071 20.7071C18.5196 20.8946 18.2652 21 18 21H4C3.73478 21 3.48043 20.8946 3.29289 20.7071C3.10536 20.5196 3 20.2652 3 20V6C3 5.73478 3.10536 5.48043 3.29289 5.29289C3.48043 5.10536 3.73478 5 4 5H7ZM11 3C10.68 2.99992 10.3646 3.07664 10.0804 3.22372C9.79612 3.3708 9.55133 3.58394 9.36655 3.84524C9.18177 4.10654 9.06239 4.40837 9.01845 4.72537C8.9745 5.04237 9.00727 5.36529 9.114 5.667C9.16729 5.81791 9.18359 5.9794 9.16152 6.13791C9.13945 6.29643 9.07965 6.44733 8.98716 6.57793C8.89466 6.70854 8.77218 6.81504 8.62998 6.88848C8.48779 6.96193 8.33004 7.00017 8.17 7H5V19H17V15.83C16.9998 15.67 17.0381 15.5122 17.1115 15.37C17.185 15.2278 17.2915 15.1053 17.4221 15.0128C17.5527 14.9203 17.7036 14.8606 17.8621 14.8385C18.0206 14.8164 18.1821 14.8327 18.333 14.886C18.5417 14.962 18.764 15 19 15C19.2912 14.9998 19.5788 14.936 19.8427 14.8131C20.1067 14.6902 20.3406 14.5112 20.5282 14.2885C20.7158 14.0658 20.8525 13.8049 20.9288 13.5239C21.005 13.2429 21.019 12.9486 20.9698 12.6617C20.9205 12.3747 20.8092 12.1019 20.6436 11.8625C20.478 11.623 20.2621 11.4226 20.011 11.2752C19.7599 11.1278 19.4796 11.037 19.1898 11.0092C18.9 10.9813 18.6076 11.0171 18.333 11.114C18.1821 11.1673 18.0206 11.1836 17.8621 11.1615C17.7036 11.1394 17.5527 11.0797 17.4221 10.9872C17.2915 10.8947 17.185 10.7722 17.1115 10.63C17.0381 10.4878 16.9998 10.33 17 10.17V7H13.83C13.67 7.00017 13.5122 6.96193 13.37 6.88848C13.2278 6.81504 13.1053 6.70854 13.0128 6.57793C12.9203 6.44733 12.8606 6.29643 12.8385 6.13791C12.8164 5.9794 12.8327 5.81791 12.886 5.667C12.962 5.459 13 5.23667 13 5C13 4.46957 12.7893 3.96086 12.4142 3.58579C12.0391 3.21071 11.5304 3 11 3Z" fill="#212529" fill-opacity="0.75"/>
</svg>
