<svg width="10" height="10" viewBox="0 0 10 10" fill="none" xmlns="http://www.w3.org/2000/svg">
<path d="M5 10C7.76172 10 10 7.76172 10 5C10 2.23828 7.76172 0 5 0C2.23828 0 0 2.23828 0 5C0 7.76172 2.23828 10 5 10ZM3.26172 3.26172C3.44531 3.07812 3.74219 3.07812 3.92383 3.26172L4.99805 4.33594L6.07227 3.26172C6.25586 3.07812 6.55273 3.07812 6.73438 3.26172C6.91602 3.44531 6.91797 3.74219 6.73438 3.92383L5.66016 4.99805L6.73438 6.07227C6.91797 6.25586 6.91797 6.55273 6.73438 6.73438C6.55078 6.91602 6.25391 6.91797 6.07227 6.73438L4.99805 5.66016L3.92383 6.73438C3.74023 6.91797 3.44336 6.91797 3.26172 6.73438C3.08008 6.55078 3.07812 6.25391 3.26172 6.07227L4.33594 4.99805L3.26172 3.92383C3.07812 3.74023 3.07812 3.44336 3.26172 3.26172Z" fill="#495057"/>
</svg>
